<mxfile host="app.diagrams.net" modified="2024-01-09T15:16:12.887Z" agent="Mozilla/5.0 (Windows NT 10.0; Win64; x64) AppleWebKit/537.36 (KHTML, like Gecko) Chrome/120.0.0.0 Safari/537.36" etag="itp0mga7yAQBm2EIR0Ir" version="22.1.17" type="github">
  <diagram name="Page-1" id="xHuSxf7HJpYRh0zziQ7x">
    <mxGraphModel dx="1628" dy="393" grid="1" gridSize="10" guides="1" tooltips="1" connect="1" arrows="1" fold="1" page="1" pageScale="1" pageWidth="850" pageHeight="1100" math="0" shadow="0">
      <root>
        <mxCell id="0" />
        <mxCell id="1" parent="0" />
        <mxCell id="fUgEyUJmdbEf-X1ymC0t-29" style="edgeStyle=orthogonalEdgeStyle;rounded=0;orthogonalLoop=1;jettySize=auto;html=1;entryX=0.636;entryY=0;entryDx=0;entryDy=0;entryPerimeter=0;" edge="1" parent="1" source="fUgEyUJmdbEf-X1ymC0t-31" target="e5D1fi9UYMcUk9HVfzZA-52">
          <mxGeometry relative="1" as="geometry" />
        </mxCell>
        <mxCell id="e5D1fi9UYMcUk9HVfzZA-1" value="D4" style="html=1;dashed=0;whiteSpace=wrap;shape=mxgraph.dfd.dataStoreID;align=left;spacingLeft=3;points=[[0,0],[0.5,0],[1,0],[0,0.5],[1,0.5],[0,1],[0.5,1],[1,1]];" parent="1" vertex="1">
          <mxGeometry x="480" y="240" width="100" height="30" as="geometry" />
        </mxCell>
        <mxCell id="e5D1fi9UYMcUk9HVfzZA-2" value="alumni" style="text;html=1;strokeColor=none;fillColor=none;align=center;verticalAlign=middle;whiteSpace=wrap;rounded=0;" parent="1" vertex="1">
          <mxGeometry x="510" y="240" width="60" height="30" as="geometry" />
        </mxCell>
        <mxCell id="fUgEyUJmdbEf-X1ymC0t-47" style="edgeStyle=orthogonalEdgeStyle;rounded=0;orthogonalLoop=1;jettySize=auto;html=1;entryX=0.75;entryY=0;entryDx=0;entryDy=0;" edge="1" parent="1" source="fUgEyUJmdbEf-X1ymC0t-51" target="e5D1fi9UYMcUk9HVfzZA-54">
          <mxGeometry relative="1" as="geometry">
            <mxPoint x="480" y="494" as="sourcePoint" />
            <mxPoint x="300" y="516.4999999999999" as="targetPoint" />
            <Array as="points">
              <mxPoint x="273" y="504" />
            </Array>
          </mxGeometry>
        </mxCell>
        <mxCell id="e5D1fi9UYMcUk9HVfzZA-3" value="D11" style="html=1;dashed=0;whiteSpace=wrap;shape=mxgraph.dfd.dataStoreID;align=left;spacingLeft=3;points=[[0,0],[0.5,0],[1,0],[0,0.5],[1,0.5],[0,1],[0.5,1],[1,1]];" parent="1" vertex="1">
          <mxGeometry x="480" y="480" width="100" height="30" as="geometry" />
        </mxCell>
        <mxCell id="e5D1fi9UYMcUk9HVfzZA-4" value="books" style="text;html=1;strokeColor=none;fillColor=none;align=center;verticalAlign=middle;whiteSpace=wrap;rounded=0;" parent="1" vertex="1">
          <mxGeometry x="510" y="480" width="60" height="30" as="geometry" />
        </mxCell>
        <mxCell id="e5D1fi9UYMcUk9HVfzZA-5" value="D12" style="html=1;dashed=0;whiteSpace=wrap;shape=mxgraph.dfd.dataStoreID;align=left;spacingLeft=3;points=[[0,0],[0.5,0],[1,0],[0,0.5],[1,0.5],[0,1],[0.5,1],[1,1]];" parent="1" vertex="1">
          <mxGeometry x="480" y="520" width="100" height="30" as="geometry" />
        </mxCell>
        <mxCell id="e5D1fi9UYMcUk9HVfzZA-6" value="books accession" style="text;html=1;strokeColor=none;fillColor=none;align=center;verticalAlign=middle;whiteSpace=wrap;rounded=0;" parent="1" vertex="1">
          <mxGeometry x="510" y="520" width="60" height="30" as="geometry" />
        </mxCell>
        <mxCell id="e5D1fi9UYMcUk9HVfzZA-7" value="D14" style="html=1;dashed=0;whiteSpace=wrap;shape=mxgraph.dfd.dataStoreID;align=left;spacingLeft=3;points=[[0,0],[0.5,0],[1,0],[0,0.5],[1,0.5],[0,1],[0.5,1],[1,1]];" parent="1" vertex="1">
          <mxGeometry x="480" y="600" width="100" height="30" as="geometry" />
        </mxCell>
        <mxCell id="e5D1fi9UYMcUk9HVfzZA-9" value="D16" style="html=1;dashed=0;whiteSpace=wrap;shape=mxgraph.dfd.dataStoreID;align=left;spacingLeft=3;points=[[0,0],[0.5,0],[1,0],[0,0.5],[1,0.5],[0,1],[0.5,1],[1,1]];" parent="1" vertex="1">
          <mxGeometry x="480" y="680" width="100" height="30" as="geometry" />
        </mxCell>
        <mxCell id="e5D1fi9UYMcUk9HVfzZA-10" value="books sub table" style="text;html=1;strokeColor=none;fillColor=none;align=center;verticalAlign=middle;whiteSpace=wrap;rounded=0;" parent="1" vertex="1">
          <mxGeometry x="510" y="680" width="60" height="30" as="geometry" />
        </mxCell>
        <mxCell id="e5D1fi9UYMcUk9HVfzZA-11" value="D19" style="html=1;dashed=0;whiteSpace=wrap;shape=mxgraph.dfd.dataStoreID;align=left;spacingLeft=3;points=[[0,0],[0.5,0],[1,0],[0,0.5],[1,0.5],[0,1],[0.5,1],[1,1]];" parent="1" vertex="1">
          <mxGeometry x="480" y="800" width="100" height="30" as="geometry" />
        </mxCell>
        <mxCell id="e5D1fi9UYMcUk9HVfzZA-12" value="borrowed" style="text;html=1;strokeColor=none;fillColor=none;align=center;verticalAlign=middle;whiteSpace=wrap;rounded=0;" parent="1" vertex="1">
          <mxGeometry x="510" y="800" width="60" height="30" as="geometry" />
        </mxCell>
        <mxCell id="e5D1fi9UYMcUk9HVfzZA-13" value="D10" style="html=1;dashed=0;whiteSpace=wrap;shape=mxgraph.dfd.dataStoreID;align=left;spacingLeft=3;points=[[0,0],[0.5,0],[1,0],[0,0.5],[1,0.5],[0,1],[0.5,1],[1,1]];" parent="1" vertex="1">
          <mxGeometry x="480" y="440" width="100" height="30" as="geometry" />
        </mxCell>
        <mxCell id="e5D1fi9UYMcUk9HVfzZA-14" value="course" style="text;html=1;strokeColor=none;fillColor=none;align=center;verticalAlign=middle;whiteSpace=wrap;rounded=0;" parent="1" vertex="1">
          <mxGeometry x="510" y="440" width="60" height="30" as="geometry" />
        </mxCell>
        <mxCell id="e5D1fi9UYMcUk9HVfzZA-15" value="D3" style="html=1;dashed=0;whiteSpace=wrap;shape=mxgraph.dfd.dataStoreID;align=left;spacingLeft=3;points=[[0,0],[0.5,0],[1,0],[0,0.5],[1,0.5],[0,1],[0.5,1],[1,1]];" parent="1" vertex="1">
          <mxGeometry x="480" y="160" width="100" height="30" as="geometry" />
        </mxCell>
        <mxCell id="e5D1fi9UYMcUk9HVfzZA-16" value="entrance" style="text;html=1;strokeColor=none;fillColor=none;align=center;verticalAlign=middle;whiteSpace=wrap;rounded=0;" parent="1" vertex="1">
          <mxGeometry x="510" y="160" width="60" height="30" as="geometry" />
        </mxCell>
        <mxCell id="e5D1fi9UYMcUk9HVfzZA-17" value="D2" style="html=1;dashed=0;whiteSpace=wrap;shape=mxgraph.dfd.dataStoreID;align=left;spacingLeft=3;points=[[0,0],[0.5,0],[1,0],[0,0.5],[1,0.5],[0,1],[0.5,1],[1,1]];" parent="1" vertex="1">
          <mxGeometry x="480" y="120" width="100" height="30" as="geometry" />
        </mxCell>
        <mxCell id="e5D1fi9UYMcUk9HVfzZA-18" value="history" style="text;html=1;strokeColor=none;fillColor=none;align=center;verticalAlign=middle;whiteSpace=wrap;rounded=0;" parent="1" vertex="1">
          <mxGeometry x="510" y="120" width="60" height="30" as="geometry" />
        </mxCell>
        <mxCell id="e5D1fi9UYMcUk9HVfzZA-19" value="D15" style="html=1;dashed=0;whiteSpace=wrap;shape=mxgraph.dfd.dataStoreID;align=left;spacingLeft=3;points=[[0,0],[0.5,0],[1,0],[0,0.5],[1,0.5],[0,1],[0.5,1],[1,1]];" parent="1" vertex="1">
          <mxGeometry x="480" y="640" width="100" height="30" as="geometry" />
        </mxCell>
        <mxCell id="e5D1fi9UYMcUk9HVfzZA-20" value="inventory" style="text;html=1;strokeColor=none;fillColor=none;align=center;verticalAlign=middle;whiteSpace=wrap;rounded=0;" parent="1" vertex="1">
          <mxGeometry x="510" y="640" width="60" height="30" as="geometry" />
        </mxCell>
        <mxCell id="e5D1fi9UYMcUk9HVfzZA-21" value="D1" style="html=1;dashed=0;whiteSpace=wrap;shape=mxgraph.dfd.dataStoreID;align=left;spacingLeft=3;points=[[0,0],[0.5,0],[1,0],[0,0.5],[1,0.5],[0,1],[0.5,1],[1,1]];" parent="1" vertex="1">
          <mxGeometry x="480" y="80" width="100" height="30" as="geometry" />
        </mxCell>
        <mxCell id="e5D1fi9UYMcUk9HVfzZA-22" value="logs" style="text;html=1;strokeColor=none;fillColor=none;align=center;verticalAlign=middle;whiteSpace=wrap;rounded=0;" parent="1" vertex="1">
          <mxGeometry x="510" y="80" width="60" height="30" as="geometry" />
        </mxCell>
        <mxCell id="e5D1fi9UYMcUk9HVfzZA-23" value="D5" style="html=1;dashed=0;whiteSpace=wrap;shape=mxgraph.dfd.dataStoreID;align=left;spacingLeft=3;points=[[0,0],[0.5,0],[1,0],[0,0.5],[1,0.5],[0,1],[0.5,1],[1,1]];" parent="1" vertex="1">
          <mxGeometry x="480" y="280" width="100" height="30" as="geometry" />
        </mxCell>
        <mxCell id="e5D1fi9UYMcUk9HVfzZA-24" value="members" style="text;html=1;strokeColor=none;fillColor=none;align=center;verticalAlign=middle;whiteSpace=wrap;rounded=0;" parent="1" vertex="1">
          <mxGeometry x="510" y="280" width="60" height="30" as="geometry" />
        </mxCell>
        <mxCell id="e5D1fi9UYMcUk9HVfzZA-25" value="D22" style="html=1;dashed=0;whiteSpace=wrap;shape=mxgraph.dfd.dataStoreID;align=left;spacingLeft=3;points=[[0,0],[0.5,0],[1,0],[0,0.5],[1,0.5],[0,1],[0.5,1],[1,1]];" parent="1" vertex="1">
          <mxGeometry x="480" y="920" width="100" height="30" as="geometry" />
        </mxCell>
        <mxCell id="e5D1fi9UYMcUk9HVfzZA-26" value="printed reports" style="text;html=1;strokeColor=none;fillColor=none;align=center;verticalAlign=middle;whiteSpace=wrap;rounded=0;" parent="1" vertex="1">
          <mxGeometry x="510" y="920" width="70" height="30" as="geometry" />
        </mxCell>
        <mxCell id="e5D1fi9UYMcUk9HVfzZA-27" value="D21" style="html=1;dashed=0;whiteSpace=wrap;shape=mxgraph.dfd.dataStoreID;align=left;spacingLeft=3;points=[[0,0],[0.5,0],[1,0],[0,0.5],[1,0.5],[0,1],[0.5,1],[1,1]];" parent="1" vertex="1">
          <mxGeometry x="480" y="880" width="100" height="30" as="geometry" />
        </mxCell>
        <mxCell id="e5D1fi9UYMcUk9HVfzZA-28" value="report name" style="text;html=1;strokeColor=none;fillColor=none;align=center;verticalAlign=middle;whiteSpace=wrap;rounded=0;" parent="1" vertex="1">
          <mxGeometry x="510" y="880" width="70" height="30" as="geometry" />
        </mxCell>
        <mxCell id="e5D1fi9UYMcUk9HVfzZA-29" value="D18" style="html=1;dashed=0;whiteSpace=wrap;shape=mxgraph.dfd.dataStoreID;align=left;spacingLeft=3;points=[[0,0],[0.5,0],[1,0],[0,0.5],[1,0.5],[0,1],[0.5,1],[1,1]];" parent="1" vertex="1">
          <mxGeometry x="480" y="760" width="100" height="30" as="geometry" />
        </mxCell>
        <mxCell id="e5D1fi9UYMcUk9HVfzZA-30" value="returned" style="text;html=1;strokeColor=none;fillColor=none;align=center;verticalAlign=middle;whiteSpace=wrap;rounded=0;" parent="1" vertex="1">
          <mxGeometry x="510" y="760" width="60" height="30" as="geometry" />
        </mxCell>
        <mxCell id="e5D1fi9UYMcUk9HVfzZA-31" value="D20" style="html=1;dashed=0;whiteSpace=wrap;shape=mxgraph.dfd.dataStoreID;align=left;spacingLeft=3;points=[[0,0],[0.5,0],[1,0],[0,0.5],[1,0.5],[0,1],[0.5,1],[1,1]];" parent="1" vertex="1">
          <mxGeometry x="480" y="840" width="100" height="30" as="geometry" />
        </mxCell>
        <mxCell id="e5D1fi9UYMcUk9HVfzZA-32" value="section2" style="text;html=1;strokeColor=none;fillColor=none;align=center;verticalAlign=middle;whiteSpace=wrap;rounded=0;" parent="1" vertex="1">
          <mxGeometry x="510" y="840" width="60" height="30" as="geometry" />
        </mxCell>
        <mxCell id="e5D1fi9UYMcUk9HVfzZA-33" value="D13" style="html=1;dashed=0;whiteSpace=wrap;shape=mxgraph.dfd.dataStoreID;align=left;spacingLeft=3;points=[[0,0],[0.5,0],[1,0],[0,0.5],[1,0.5],[0,1],[0.5,1],[1,1]];" parent="1" vertex="1">
          <mxGeometry x="480" y="560" width="100" height="30" as="geometry" />
        </mxCell>
        <mxCell id="e5D1fi9UYMcUk9HVfzZA-34" value="subject" style="text;html=1;strokeColor=none;fillColor=none;align=center;verticalAlign=middle;whiteSpace=wrap;rounded=0;" parent="1" vertex="1">
          <mxGeometry x="510" y="560" width="60" height="30" as="geometry" />
        </mxCell>
        <mxCell id="e5D1fi9UYMcUk9HVfzZA-37" value="D17" style="html=1;dashed=0;whiteSpace=wrap;shape=mxgraph.dfd.dataStoreID;align=left;spacingLeft=3;points=[[0,0],[0.5,0],[1,0],[0,0.5],[1,0.5],[0,1],[0.5,1],[1,1]];" parent="1" vertex="1">
          <mxGeometry x="480" y="720" width="100" height="30" as="geometry" />
        </mxCell>
        <mxCell id="e5D1fi9UYMcUk9HVfzZA-38" value="thesis" style="text;html=1;strokeColor=none;fillColor=none;align=center;verticalAlign=middle;whiteSpace=wrap;rounded=0;" parent="1" vertex="1">
          <mxGeometry x="510" y="720" width="60" height="30" as="geometry" />
        </mxCell>
        <mxCell id="e5D1fi9UYMcUk9HVfzZA-39" value="D9" style="html=1;dashed=0;whiteSpace=wrap;shape=mxgraph.dfd.dataStoreID;align=left;spacingLeft=3;points=[[0,0],[0.5,0],[1,0],[0,0.5],[1,0.5],[0,1],[0.5,1],[1,1]];" parent="1" vertex="1">
          <mxGeometry x="480" y="400" width="100" height="30" as="geometry" />
        </mxCell>
        <mxCell id="e5D1fi9UYMcUk9HVfzZA-40" value="type" style="text;html=1;strokeColor=none;fillColor=none;align=center;verticalAlign=middle;whiteSpace=wrap;rounded=0;" parent="1" vertex="1">
          <mxGeometry x="510" y="400" width="60" height="30" as="geometry" />
        </mxCell>
        <mxCell id="e5D1fi9UYMcUk9HVfzZA-41" value="D6" style="html=1;dashed=0;whiteSpace=wrap;shape=mxgraph.dfd.dataStoreID;align=left;spacingLeft=3;points=[[0,0],[0.5,0],[1,0],[0,0.5],[1,0.5],[0,1],[0.5,1],[1,1]];" parent="1" vertex="1">
          <mxGeometry x="480" y="200" width="100" height="30" as="geometry" />
        </mxCell>
        <mxCell id="e5D1fi9UYMcUk9HVfzZA-42" value="user" style="text;html=1;strokeColor=none;fillColor=none;align=center;verticalAlign=middle;whiteSpace=wrap;rounded=0;" parent="1" vertex="1">
          <mxGeometry x="510" y="200" width="60" height="30" as="geometry" />
        </mxCell>
        <mxCell id="e5D1fi9UYMcUk9HVfzZA-43" value="D7" style="html=1;dashed=0;whiteSpace=wrap;shape=mxgraph.dfd.dataStoreID;align=left;spacingLeft=3;points=[[0,0],[0.5,0],[1,0],[0,0.5],[1,0.5],[0,1],[0.5,1],[1,1]];" parent="1" vertex="1">
          <mxGeometry x="480" y="320" width="100" height="30" as="geometry" />
        </mxCell>
        <mxCell id="e5D1fi9UYMcUk9HVfzZA-44" value="year" style="text;html=1;strokeColor=none;fillColor=none;align=center;verticalAlign=middle;whiteSpace=wrap;rounded=0;" parent="1" vertex="1">
          <mxGeometry x="510" y="320" width="60" height="30" as="geometry" />
        </mxCell>
        <mxCell id="e5D1fi9UYMcUk9HVfzZA-45" value="D8" style="html=1;dashed=0;whiteSpace=wrap;shape=mxgraph.dfd.dataStoreID;align=left;spacingLeft=3;points=[[0,0],[0.5,0],[1,0],[0,0.5],[1,0.5],[0,1],[0.5,1],[1,1]];" parent="1" vertex="1">
          <mxGeometry x="480" y="360" width="100" height="30" as="geometry" />
        </mxCell>
        <mxCell id="e5D1fi9UYMcUk9HVfzZA-46" value="year and section" style="text;html=1;strokeColor=none;fillColor=none;align=center;verticalAlign=middle;whiteSpace=wrap;rounded=0;" parent="1" vertex="1">
          <mxGeometry x="510" y="360" width="60" height="30" as="geometry" />
        </mxCell>
        <mxCell id="e5D1fi9UYMcUk9HVfzZA-50" value="books lost and&amp;nbsp; replace" style="text;html=1;strokeColor=none;fillColor=none;align=center;verticalAlign=middle;whiteSpace=wrap;rounded=0;" parent="1" vertex="1">
          <mxGeometry x="510" y="600" width="70" height="30" as="geometry" />
        </mxCell>
        <mxCell id="e5D1fi9UYMcUk9HVfzZA-52" value="1.0" style="swimlane;fontStyle=0;childLayout=stackLayout;horizontal=1;startSize=20;fillColor=#ffffff;horizontalStack=0;resizeParent=1;resizeParentMax=0;resizeLast=0;collapsible=0;marginBottom=0;swimlaneFillColor=#ffffff;rounded=1;" parent="1" vertex="1">
          <mxGeometry x="190" y="350" width="110" height="50" as="geometry" />
        </mxCell>
        <mxCell id="e5D1fi9UYMcUk9HVfzZA-53" value="Manage Members" style="text;html=1;strokeColor=none;fillColor=none;align=center;verticalAlign=middle;whiteSpace=wrap;rounded=1;" parent="e5D1fi9UYMcUk9HVfzZA-52" vertex="1">
          <mxGeometry y="20" width="110" height="30" as="geometry" />
        </mxCell>
        <mxCell id="fUgEyUJmdbEf-X1ymC0t-48" style="edgeStyle=orthogonalEdgeStyle;rounded=0;orthogonalLoop=1;jettySize=auto;html=1;exitX=0.75;exitY=0;exitDx=0;exitDy=0;" edge="1" parent="e5D1fi9UYMcUk9HVfzZA-52" source="e5D1fi9UYMcUk9HVfzZA-52" target="e5D1fi9UYMcUk9HVfzZA-53">
          <mxGeometry relative="1" as="geometry" />
        </mxCell>
        <mxCell id="fUgEyUJmdbEf-X1ymC0t-42" style="edgeStyle=orthogonalEdgeStyle;rounded=0;orthogonalLoop=1;jettySize=auto;html=1;entryX=0;entryY=0.167;entryDx=0;entryDy=0;entryPerimeter=0;" edge="1" parent="1" source="fUgEyUJmdbEf-X1ymC0t-44" target="e5D1fi9UYMcUk9HVfzZA-3">
          <mxGeometry relative="1" as="geometry">
            <Array as="points" />
          </mxGeometry>
        </mxCell>
        <mxCell id="e5D1fi9UYMcUk9HVfzZA-54" value="1.0" style="swimlane;fontStyle=0;childLayout=stackLayout;horizontal=1;startSize=20;fillColor=#ffffff;horizontalStack=0;resizeParent=1;resizeParentMax=0;resizeLast=0;collapsible=0;marginBottom=0;swimlaneFillColor=#ffffff;rounded=1;" parent="1" vertex="1">
          <mxGeometry x="190" y="585" width="110" height="50" as="geometry" />
        </mxCell>
        <mxCell id="e5D1fi9UYMcUk9HVfzZA-55" value="Manage Books" style="text;html=1;strokeColor=none;fillColor=none;align=center;verticalAlign=middle;whiteSpace=wrap;rounded=1;" parent="e5D1fi9UYMcUk9HVfzZA-54" vertex="1">
          <mxGeometry y="20" width="110" height="30" as="geometry" />
        </mxCell>
        <mxCell id="e5D1fi9UYMcUk9HVfzZA-56" value="1.0" style="swimlane;fontStyle=0;childLayout=stackLayout;horizontal=1;startSize=20;fillColor=#ffffff;horizontalStack=0;resizeParent=1;resizeParentMax=0;resizeLast=0;collapsible=0;marginBottom=0;swimlaneFillColor=#ffffff;rounded=1;" parent="1" vertex="1">
          <mxGeometry x="180" y="760" width="110" height="50" as="geometry" />
        </mxCell>
        <mxCell id="e5D1fi9UYMcUk9HVfzZA-57" value="Manage Transaction" style="text;html=1;strokeColor=none;fillColor=none;align=center;verticalAlign=middle;whiteSpace=wrap;rounded=1;" parent="e5D1fi9UYMcUk9HVfzZA-56" vertex="1">
          <mxGeometry y="20" width="110" height="30" as="geometry" />
        </mxCell>
        <mxCell id="e5D1fi9UYMcUk9HVfzZA-58" value="1.0" style="swimlane;fontStyle=0;childLayout=stackLayout;horizontal=1;startSize=20;fillColor=#ffffff;horizontalStack=0;resizeParent=1;resizeParentMax=0;resizeLast=0;collapsible=0;marginBottom=0;swimlaneFillColor=#ffffff;rounded=1;" parent="1" vertex="1">
          <mxGeometry x="180" y="870" width="110" height="50" as="geometry" />
        </mxCell>
        <mxCell id="e5D1fi9UYMcUk9HVfzZA-59" value="Manage Reports" style="text;html=1;strokeColor=none;fillColor=none;align=center;verticalAlign=middle;whiteSpace=wrap;rounded=1;" parent="e5D1fi9UYMcUk9HVfzZA-58" vertex="1">
          <mxGeometry y="20" width="110" height="30" as="geometry" />
        </mxCell>
        <mxCell id="e5D1fi9UYMcUk9HVfzZA-61" value="1.0" style="swimlane;fontStyle=0;childLayout=stackLayout;horizontal=1;startSize=20;fillColor=#ffffff;horizontalStack=0;resizeParent=1;resizeParentMax=0;resizeLast=0;collapsible=0;marginBottom=0;swimlaneFillColor=#ffffff;rounded=1;" parent="1" vertex="1">
          <mxGeometry x="190" y="190" width="110" height="50" as="geometry" />
        </mxCell>
        <mxCell id="e5D1fi9UYMcUk9HVfzZA-62" value="Log in" style="text;html=1;strokeColor=none;fillColor=none;align=center;verticalAlign=middle;whiteSpace=wrap;rounded=1;" parent="e5D1fi9UYMcUk9HVfzZA-61" vertex="1">
          <mxGeometry y="20" width="110" height="30" as="geometry" />
        </mxCell>
        <mxCell id="fUgEyUJmdbEf-X1ymC0t-4" style="edgeStyle=orthogonalEdgeStyle;rounded=0;orthogonalLoop=1;jettySize=auto;html=1;entryX=0.5;entryY=0;entryDx=0;entryDy=0;exitX=1;exitY=0.5;exitDx=0;exitDy=0;" edge="1" parent="1" source="fUgEyUJmdbEf-X1ymC0t-5" target="e5D1fi9UYMcUk9HVfzZA-52">
          <mxGeometry relative="1" as="geometry" />
        </mxCell>
        <mxCell id="e5D1fi9UYMcUk9HVfzZA-70" value="Admin" style="rounded=1;whiteSpace=wrap;html=1;" parent="1" vertex="1">
          <mxGeometry x="-70" y="280" width="120" height="60" as="geometry" />
        </mxCell>
        <mxCell id="e5D1fi9UYMcUk9HVfzZA-71" value="Staff" style="rounded=1;whiteSpace=wrap;html=1;" parent="1" vertex="1">
          <mxGeometry x="-80" y="580" width="120" height="60" as="geometry" />
        </mxCell>
        <mxCell id="fUgEyUJmdbEf-X1ymC0t-3" style="edgeStyle=orthogonalEdgeStyle;rounded=0;orthogonalLoop=1;jettySize=auto;html=1;entryX=-0.003;entryY=0.216;entryDx=0;entryDy=0;entryPerimeter=0;" edge="1" parent="1">
          <mxGeometry relative="1" as="geometry">
            <mxPoint x="239" y="190" as="sourcePoint" />
            <mxPoint x="478.70000000000005" y="86.48000000000002" as="targetPoint" />
            <Array as="points">
              <mxPoint x="239" y="87" />
            </Array>
          </mxGeometry>
        </mxCell>
        <mxCell id="fUgEyUJmdbEf-X1ymC0t-6" value="" style="edgeStyle=orthogonalEdgeStyle;rounded=0;orthogonalLoop=1;jettySize=auto;html=1;endArrow=none;endFill=0;" edge="1" parent="1" source="e5D1fi9UYMcUk9HVfzZA-70" target="fUgEyUJmdbEf-X1ymC0t-5">
          <mxGeometry relative="1" as="geometry">
            <mxPoint x="50" y="310" as="sourcePoint" />
            <mxPoint x="245" y="350" as="targetPoint" />
          </mxGeometry>
        </mxCell>
        <mxCell id="fUgEyUJmdbEf-X1ymC0t-5" value="User Information" style="text;html=1;strokeColor=none;fillColor=none;align=center;verticalAlign=middle;whiteSpace=wrap;rounded=0;" vertex="1" parent="1">
          <mxGeometry x="90" y="295" width="100" height="30" as="geometry" />
        </mxCell>
        <mxCell id="fUgEyUJmdbEf-X1ymC0t-11" value="" style="edgeStyle=orthogonalEdgeStyle;rounded=0;orthogonalLoop=1;jettySize=auto;html=1;entryX=-0.004;entryY=0.404;entryDx=0;entryDy=0;endArrow=none;endFill=0;exitX=1;exitY=0.25;exitDx=0;exitDy=0;entryPerimeter=0;" edge="1" parent="1">
          <mxGeometry relative="1" as="geometry">
            <mxPoint x="300" y="356.5" as="sourcePoint" />
            <mxPoint x="337.55999999999995" y="290.12" as="targetPoint" />
            <Array as="points">
              <mxPoint x="300" y="360" />
              <mxPoint x="310" y="360" />
              <mxPoint x="310" y="290" />
            </Array>
          </mxGeometry>
        </mxCell>
        <mxCell id="fUgEyUJmdbEf-X1ymC0t-12" style="edgeStyle=orthogonalEdgeStyle;rounded=0;orthogonalLoop=1;jettySize=auto;html=1;exitX=0.982;exitY=0.33;exitDx=0;exitDy=0;exitPerimeter=0;" edge="1" parent="1" source="fUgEyUJmdbEf-X1ymC0t-9">
          <mxGeometry relative="1" as="geometry">
            <mxPoint x="450" y="290" as="sourcePoint" />
            <mxPoint x="480" y="290" as="targetPoint" />
            <Array as="points" />
          </mxGeometry>
        </mxCell>
        <mxCell id="fUgEyUJmdbEf-X1ymC0t-9" value="Member Information" style="text;html=1;strokeColor=none;fillColor=none;align=center;verticalAlign=middle;whiteSpace=wrap;rounded=0;" vertex="1" parent="1">
          <mxGeometry x="338" y="280" width="110" height="30" as="geometry" />
        </mxCell>
        <mxCell id="fUgEyUJmdbEf-X1ymC0t-13" style="edgeStyle=orthogonalEdgeStyle;rounded=0;orthogonalLoop=1;jettySize=auto;html=1;exitX=1;exitY=0.5;exitDx=0;exitDy=0;" edge="1" parent="1" source="fUgEyUJmdbEf-X1ymC0t-15" target="e5D1fi9UYMcUk9HVfzZA-43">
          <mxGeometry relative="1" as="geometry">
            <mxPoint x="425" y="330" as="sourcePoint" />
            <mxPoint x="480" y="330" as="targetPoint" />
            <Array as="points" />
          </mxGeometry>
        </mxCell>
        <mxCell id="fUgEyUJmdbEf-X1ymC0t-14" value="" style="edgeStyle=orthogonalEdgeStyle;rounded=0;orthogonalLoop=1;jettySize=auto;html=1;entryX=0;entryY=0.5;entryDx=0;entryDy=0;endArrow=none;endFill=0;exitX=0.846;exitY=0.014;exitDx=0;exitDy=0;exitPerimeter=0;" edge="1" parent="1" source="e5D1fi9UYMcUk9HVfzZA-52" target="fUgEyUJmdbEf-X1ymC0t-15">
          <mxGeometry relative="1" as="geometry">
            <mxPoint x="300" y="386" as="sourcePoint" />
            <mxPoint x="365" y="329" as="targetPoint" />
            <Array as="points">
              <mxPoint x="283" y="335" />
            </Array>
          </mxGeometry>
        </mxCell>
        <mxCell id="fUgEyUJmdbEf-X1ymC0t-15" value="Member Year Level" style="text;html=1;strokeColor=none;fillColor=none;align=center;verticalAlign=middle;whiteSpace=wrap;rounded=0;" vertex="1" parent="1">
          <mxGeometry x="365" y="320" width="60" height="30" as="geometry" />
        </mxCell>
        <mxCell id="fUgEyUJmdbEf-X1ymC0t-20" value="" style="edgeStyle=orthogonalEdgeStyle;rounded=0;orthogonalLoop=1;jettySize=auto;html=1;entryX=0;entryY=0.5;entryDx=0;entryDy=0;endArrow=none;endFill=0;" edge="1" parent="1" source="e5D1fi9UYMcUk9HVfzZA-53" target="fUgEyUJmdbEf-X1ymC0t-21">
          <mxGeometry relative="1" as="geometry">
            <mxPoint x="300" y="375" as="sourcePoint" />
            <mxPoint x="480" y="375" as="targetPoint" />
            <Array as="points">
              <mxPoint x="330" y="380" />
              <mxPoint x="330" y="380" />
            </Array>
          </mxGeometry>
        </mxCell>
        <mxCell id="fUgEyUJmdbEf-X1ymC0t-21" value="Member Year and Sec" style="text;html=1;strokeColor=none;fillColor=none;align=center;verticalAlign=middle;whiteSpace=wrap;rounded=0;" vertex="1" parent="1">
          <mxGeometry x="363" y="365" width="60" height="30" as="geometry" />
        </mxCell>
        <mxCell id="fUgEyUJmdbEf-X1ymC0t-22" style="edgeStyle=orthogonalEdgeStyle;rounded=0;orthogonalLoop=1;jettySize=auto;html=1;entryX=-0.017;entryY=0.689;entryDx=0;entryDy=0;entryPerimeter=0;" edge="1" parent="1" source="fUgEyUJmdbEf-X1ymC0t-21" target="e5D1fi9UYMcUk9HVfzZA-45">
          <mxGeometry relative="1" as="geometry" />
        </mxCell>
        <mxCell id="fUgEyUJmdbEf-X1ymC0t-23" style="edgeStyle=orthogonalEdgeStyle;rounded=0;orthogonalLoop=1;jettySize=auto;html=1;exitX=1;exitY=0.5;exitDx=0;exitDy=0;entryX=0;entryY=0.5;entryDx=0;entryDy=0;" edge="1" parent="1" source="fUgEyUJmdbEf-X1ymC0t-25" target="e5D1fi9UYMcUk9HVfzZA-39">
          <mxGeometry relative="1" as="geometry">
            <Array as="points" />
          </mxGeometry>
        </mxCell>
        <mxCell id="fUgEyUJmdbEf-X1ymC0t-24" value="" style="edgeStyle=orthogonalEdgeStyle;rounded=0;orthogonalLoop=1;jettySize=auto;html=1;exitX=0.75;exitY=1;exitDx=0;exitDy=0;entryX=0;entryY=0.5;entryDx=0;entryDy=0;endArrow=none;endFill=0;" edge="1" parent="1" source="e5D1fi9UYMcUk9HVfzZA-53" target="fUgEyUJmdbEf-X1ymC0t-25">
          <mxGeometry relative="1" as="geometry">
            <mxPoint x="273" y="400" as="sourcePoint" />
            <mxPoint x="480" y="415" as="targetPoint" />
            <Array as="points">
              <mxPoint x="273" y="415" />
            </Array>
          </mxGeometry>
        </mxCell>
        <mxCell id="fUgEyUJmdbEf-X1ymC0t-25" value="Member Type" style="text;html=1;strokeColor=none;fillColor=none;align=center;verticalAlign=middle;whiteSpace=wrap;rounded=0;" vertex="1" parent="1">
          <mxGeometry x="351.5" y="400" width="87" height="30" as="geometry" />
        </mxCell>
        <mxCell id="fUgEyUJmdbEf-X1ymC0t-26" style="edgeStyle=orthogonalEdgeStyle;rounded=0;orthogonalLoop=1;jettySize=auto;html=1;entryX=0;entryY=0.5;entryDx=0;entryDy=0;" edge="1" parent="1" source="fUgEyUJmdbEf-X1ymC0t-28" target="e5D1fi9UYMcUk9HVfzZA-13">
          <mxGeometry relative="1" as="geometry">
            <Array as="points" />
          </mxGeometry>
        </mxCell>
        <mxCell id="fUgEyUJmdbEf-X1ymC0t-27" value="" style="edgeStyle=orthogonalEdgeStyle;rounded=0;orthogonalLoop=1;jettySize=auto;html=1;entryX=0;entryY=0.5;entryDx=0;entryDy=0;endArrow=none;endFill=0;" edge="1" parent="1" source="e5D1fi9UYMcUk9HVfzZA-53" target="fUgEyUJmdbEf-X1ymC0t-28">
          <mxGeometry relative="1" as="geometry">
            <mxPoint x="245" y="400" as="sourcePoint" />
            <mxPoint x="480" y="455" as="targetPoint" />
            <Array as="points">
              <mxPoint x="245" y="455" />
            </Array>
          </mxGeometry>
        </mxCell>
        <mxCell id="fUgEyUJmdbEf-X1ymC0t-28" value="Member Course" style="text;html=1;strokeColor=none;fillColor=none;align=center;verticalAlign=middle;whiteSpace=wrap;rounded=0;" vertex="1" parent="1">
          <mxGeometry x="300" y="440" width="98" height="30" as="geometry" />
        </mxCell>
        <mxCell id="fUgEyUJmdbEf-X1ymC0t-30" value="" style="edgeStyle=orthogonalEdgeStyle;rounded=0;orthogonalLoop=1;jettySize=auto;html=1;entryX=1;entryY=0.5;entryDx=0;entryDy=0;endArrow=none;endFill=0;" edge="1" parent="1">
          <mxGeometry relative="1" as="geometry">
            <mxPoint x="480" y="249" as="sourcePoint" />
            <mxPoint x="432" y="249" as="targetPoint" />
            <Array as="points">
              <mxPoint x="450" y="249" />
              <mxPoint x="450" y="249" />
            </Array>
          </mxGeometry>
        </mxCell>
        <mxCell id="fUgEyUJmdbEf-X1ymC0t-31" value="List of Alumni" style="text;html=1;strokeColor=none;fillColor=none;align=center;verticalAlign=middle;whiteSpace=wrap;rounded=0;" vertex="1" parent="1">
          <mxGeometry x="330" y="234" width="102" height="30" as="geometry" />
        </mxCell>
        <mxCell id="fUgEyUJmdbEf-X1ymC0t-32" style="edgeStyle=orthogonalEdgeStyle;rounded=0;orthogonalLoop=1;jettySize=auto;html=1;entryX=-0.007;entryY=0.749;entryDx=0;entryDy=0;entryPerimeter=0;exitX=1;exitY=0.5;exitDx=0;exitDy=0;" edge="1" parent="1" source="fUgEyUJmdbEf-X1ymC0t-34">
          <mxGeometry relative="1" as="geometry">
            <mxPoint x="411" y="264.5333333333333" as="sourcePoint" />
            <mxPoint x="479.29999999999995" y="264.47" as="targetPoint" />
            <Array as="points">
              <mxPoint x="439" y="265" />
            </Array>
          </mxGeometry>
        </mxCell>
        <mxCell id="fUgEyUJmdbEf-X1ymC0t-33" value="" style="edgeStyle=orthogonalEdgeStyle;rounded=0;orthogonalLoop=1;jettySize=auto;html=1;exitX=0.75;exitY=0;exitDx=0;exitDy=0;entryX=0;entryY=0.5;entryDx=0;entryDy=0;endArrow=none;endFill=0;" edge="1" parent="1" source="e5D1fi9UYMcUk9HVfzZA-52" target="fUgEyUJmdbEf-X1ymC0t-34">
          <mxGeometry relative="1" as="geometry">
            <mxPoint x="273" y="350" as="sourcePoint" />
            <mxPoint x="479" y="262" as="targetPoint" />
          </mxGeometry>
        </mxCell>
        <mxCell id="fUgEyUJmdbEf-X1ymC0t-34" value="Alumni Information" style="text;html=1;strokeColor=none;fillColor=none;align=center;verticalAlign=middle;whiteSpace=wrap;rounded=0;" vertex="1" parent="1">
          <mxGeometry x="331" y="250" width="101" height="30" as="geometry" />
        </mxCell>
        <mxCell id="fUgEyUJmdbEf-X1ymC0t-40" style="edgeStyle=orthogonalEdgeStyle;rounded=0;orthogonalLoop=1;jettySize=auto;html=1;endArrow=none;endFill=0;" edge="1" parent="1" source="e5D1fi9UYMcUk9HVfzZA-23">
          <mxGeometry relative="1" as="geometry">
            <mxPoint x="448" y="300" as="targetPoint" />
            <Array as="points">
              <mxPoint x="448" y="300" />
            </Array>
          </mxGeometry>
        </mxCell>
        <mxCell id="fUgEyUJmdbEf-X1ymC0t-41" style="edgeStyle=orthogonalEdgeStyle;rounded=0;orthogonalLoop=1;jettySize=auto;html=1;exitX=-0.026;exitY=0.624;exitDx=0;exitDy=0;exitPerimeter=0;" edge="1" parent="1" source="fUgEyUJmdbEf-X1ymC0t-9">
          <mxGeometry relative="1" as="geometry">
            <mxPoint x="338" y="305.99999999999994" as="sourcePoint" />
            <mxPoint x="300" y="370.01" as="targetPoint" />
            <Array as="points">
              <mxPoint x="320" y="299" />
              <mxPoint x="320" y="370" />
            </Array>
          </mxGeometry>
        </mxCell>
        <mxCell id="fUgEyUJmdbEf-X1ymC0t-43" value="" style="edgeStyle=orthogonalEdgeStyle;rounded=0;orthogonalLoop=1;jettySize=auto;html=1;endArrow=none;endFill=0;" edge="1" parent="1" source="e5D1fi9UYMcUk9HVfzZA-54">
          <mxGeometry relative="1" as="geometry">
            <mxPoint x="245" y="590.0000000000001" as="sourcePoint" />
            <mxPoint x="325" y="485.03703703703695" as="targetPoint" />
            <Array as="points">
              <mxPoint x="245" y="485" />
            </Array>
          </mxGeometry>
        </mxCell>
        <mxCell id="fUgEyUJmdbEf-X1ymC0t-44" value="Book Information" style="text;html=1;strokeColor=none;fillColor=none;align=center;verticalAlign=middle;whiteSpace=wrap;rounded=0;" vertex="1" parent="1">
          <mxGeometry x="325" y="470" width="98" height="30" as="geometry" />
        </mxCell>
        <mxCell id="fUgEyUJmdbEf-X1ymC0t-50" value="" style="edgeStyle=orthogonalEdgeStyle;rounded=0;orthogonalLoop=1;jettySize=auto;html=1;endArrow=none;endFill=0;" edge="1" parent="1" target="fUgEyUJmdbEf-X1ymC0t-51">
          <mxGeometry relative="1" as="geometry">
            <mxPoint x="480" y="494" as="sourcePoint" />
            <mxPoint x="273" y="585" as="targetPoint" />
            <Array as="points">
              <mxPoint x="480" y="504" />
            </Array>
          </mxGeometry>
        </mxCell>
        <mxCell id="fUgEyUJmdbEf-X1ymC0t-51" value="List of Books" style="text;html=1;strokeColor=none;fillColor=none;align=center;verticalAlign=middle;whiteSpace=wrap;rounded=0;" vertex="1" parent="1">
          <mxGeometry x="335" y="490" width="78" height="30" as="geometry" />
        </mxCell>
      </root>
    </mxGraphModel>
  </diagram>
</mxfile>
